HIERARCHY
ROOT hip
{
  OFFSET 0 0 0
  CHANNELS 6 Xposition Yposition Zposition Zrotation Yrotation Xrotation
  JOINT abdomen
  {
    OFFSET 0 20.6881 -0.73152
    CHANNELS 3 Zrotation Xrotation Yrotation
    JOINT chest
    {
      OFFSET 0 11.7043 -0.48768
      CHANNELS 3 Zrotation Xrotation Yrotation
      JOINT neck
      {
        OFFSET 0 22.1894 -2.19456
        CHANNELS 3 Zrotation Xrotation Yrotation
        JOINT head
        {
          OFFSET -0.24384 7.07133 1.2192
          CHANNELS 3 Zrotation Xrotation Yrotation
          JOINT leftEye
          {
            OFFSET 4.14528 8.04674 8.04672
            CHANNELS 3 Zrotation Xrotation Yrotation
            End Site
            {
              OFFSET 1 0 0
            }
          }
          JOINT rightEye
          {
            OFFSET -3.6576 8.04674 8.04672
            CHANNELS 3 Zrotation Xrotation Yrotation
            End Site
            {
              OFFSET 1 0 0
            }
          }
        }
      }
      JOINT rCollar
      {
        OFFSET -2.68224 19.2634 -4.8768
        CHANNELS 3 Zrotation Xrotation Yrotation
        JOINT rShldr
        {
          OFFSET -8.77824 -1.95073 1.46304
          CHANNELS 3 Zrotation Xrotation Yrotation
          JOINT rForeArm
          {
            OFFSET -28.1742 -1.7115 0.48768
            CHANNELS 3 Zrotation Xrotation Yrotation
            JOINT rHand
            {
              OFFSET -22.5879 0.773209 7.07136
              CHANNELS 3 Zrotation Xrotation Yrotation
              JOINT rThumb1
              {
                OFFSET -1.2192 -0.487915 3.41376
                CHANNELS 3 Zrotation Xrotation Yrotation
                JOINT rThumb2
                {
                  OFFSET -3.37035 -0.52449 3.41376
                  CHANNELS 3 Zrotation Xrotation Yrotation
                  End Site
                  {
                    OFFSET -1.78271 -1.18214 1.43049
                  }
                }
              }
              JOINT rIndex1
              {
                OFFSET -7.75947 0.938293 5.60832
                CHANNELS 3 Zrotation Xrotation Yrotation
                JOINT rIndex2
                {
                  OFFSET -2.54057 -0.884171 1.56538
                  CHANNELS 3 Zrotation Xrotation Yrotation
                  End Site
                  {
                    OFFSET -1.62519 -0.234802 1.16502
                  }
                }
              }
              JOINT rMid1
              {
                OFFSET -8.24714 1.18213 3.41376
                CHANNELS 3 Zrotation Xrotation Yrotation
                JOINT rMid2
                {
                  OFFSET -3.10165 -0.590103 1.0647
                  CHANNELS 3 Zrotation Xrotation Yrotation
                  End Site
                  {
                    OFFSET -2.48547 -0.328903 0.83742
                  }
                }
              }
              JOINT rRing1
              {
                OFFSET -8.82822 0.546677 1.51678
                CHANNELS 3 Zrotation Xrotation Yrotation
                JOINT rRing2
                {
                  OFFSET -2.60934 -0.819778 -0.0198488
                  CHANNELS 3 Zrotation Xrotation Yrotation
                  End Site
                  {
                    OFFSET -2.33842 -0.294052 0.168128
                  }
                }
              }
              JOINT rPinky1
              {
                OFFSET -8.27202 -0.0477905 -0.4584
                CHANNELS 3 Zrotation Xrotation Yrotation
                JOINT rPinky2
                {
                  OFFSET -1.82734 -0.647385 -0.700984
                  CHANNELS 3 Zrotation Xrotation Yrotation
                  End Site
                  {
                    OFFSET -1.69225 -0.51767 -0.607171
                  }
                }
              }
            }
          }
        }
      }
      JOINT lCollar
      {
        OFFSET 2.68224 19.2634 -4.8768
        CHANNELS 3 Zrotation Xrotation Yrotation
        JOINT lShldr
        {
          OFFSET 8.77824 -1.95073 1.46304
          CHANNELS 3 Zrotation Xrotation Yrotation
          JOINT lForeArm
          {
            OFFSET 28.1742 -1.7115 0.48768
            CHANNELS 3 Zrotation Xrotation Yrotation
            JOINT lHand
            {
              OFFSET 22.5879 0.773209 7.07136
              CHANNELS 3 Zrotation Xrotation Yrotation
              JOINT lThumb1
              {
                OFFSET 1.2192 -0.487915 3.41376
                CHANNELS 3 Zrotation Xrotation Yrotation
                JOINT lThumb2
                {
                  OFFSET 3.37035 -0.52449 3.41376
                  CHANNELS 3 Zrotation Xrotation Yrotation
                  End Site
                  {
                    OFFSET 1.78271 -1.18214 1.43049
                  }
                }
              }
              JOINT lIndex1
              {
                OFFSET 7.75947 0.938293 5.60832
                CHANNELS 3 Zrotation Xrotation Yrotation
                JOINT lIndex2
                {
                  OFFSET 2.54057 -0.884171 1.56538
                  CHANNELS 3 Zrotation Xrotation Yrotation
                  End Site
                  {
                    OFFSET 1.62519 -0.234802 1.16502
                  }
                }
              }
              JOINT lMid1
              {
                OFFSET 8.24714 1.18213 3.41376
                CHANNELS 3 Zrotation Xrotation Yrotation
                JOINT lMid2
                {
                  OFFSET 3.10165 -0.590103 1.0647
                  CHANNELS 3 Zrotation Xrotation Yrotation
                  End Site
                  {
                    OFFSET 2.48547 -0.328903 0.83742
                  }
                }
              }
              JOINT lRing1
              {
                OFFSET 8.82822 0.546677 1.51678
                CHANNELS 3 Zrotation Xrotation Yrotation
                JOINT lRing2
                {
                  OFFSET 2.60934 -0.819778 -0.0198488
                  CHANNELS 3 Zrotation Xrotation Yrotation
                  End Site
                  {
                    OFFSET 2.33842 -0.294052 0.168128
                  }
                }
              }
              JOINT lPinky1
              {
                OFFSET 8.27202 -0.0477905 -0.4584
                CHANNELS 3 Zrotation Xrotation Yrotation
                JOINT lPinky2
                {
                  OFFSET 1.82734 -0.647385 -0.700984
                  CHANNELS 3 Zrotation Xrotation Yrotation
                  End Site
                  {
                    OFFSET 1.69225 -0.51767 -0.607171
                  }
                }
              }
            }
          }
        }
      }
    }
  }
  JOINT rButtock
  {
    OFFSET -8.77824 4.35084 1.2192
    CHANNELS 3 Zrotation Xrotation Yrotation
    JOINT rThigh
    {
      OFFSET 0 -1.70687 -2.19456
      CHANNELS 3 Zrotation Xrotation Yrotation
      JOINT rShin
      {
        OFFSET 0 -36.8199 0.73152
        CHANNELS 3 Zrotation Xrotation Yrotation
        JOINT rFoot
        {
          OFFSET 0.73152 -45.1104 -5.12064
          CHANNELS 3 Zrotation Xrotation Yrotation
          End Site
          {
            OFFSET -1.1221 -3.69964 12.103
          }
        }
      }
    }
  }
  JOINT lButtock
  {
    OFFSET 8.77824 4.35084 1.2192
    CHANNELS 3 Zrotation Xrotation Yrotation
    JOINT lThigh
    {
      OFFSET 0 -1.70687 -2.19456
      CHANNELS 3 Zrotation Xrotation Yrotation
      JOINT lShin
      {
        OFFSET 0 -36.8199 0.73152
        CHANNELS 3 Zrotation Xrotation Yrotation
        JOINT lFoot
        {
          OFFSET -0.73152 -45.1104 -5.12064
          CHANNELS 3 Zrotation Xrotation Yrotation
          End Site
          {
            OFFSET 1.1221 -3.69964 12.103
          }
        }
      }
    }
  }
}
MOTION
Frames:	4
Frame Time:	0.03333
0.0042098574340343475 61.628055572509766 0.14685103669762611 -2.9908061027526855 1.4481730461120605 5.919203281402588 -2.133655309677124 13.90966796875 4.140262603759766 2.5365264415740967 -9.197876930236816 1.343618631362915 -5.425287246704102 14.222389221191406 -3.9684767723083496 8.280342102050781 -24.335899353027344 -5.855855464935303 0.016874104738235474 -0.032193221151828766 0.05595673248171806 -0.0939318910241127 -0.0980057567358017 -0.044440411031246185 0.011677318252623081 0.10332462936639786 0.06496836245059967 51.92121887207031 39.481388092041016 10.865923881530762 -28.28601837158203 -32.46415328979492 70.83421325683594 -0.019810983911156654 1.8001770973205566 0.18767310678958893 0.015136338770389557 0.04284144192934036 0.02148193120956421 0.002003356348723173 -0.008940198458731174 0.0514821857213974 -0.08599064499139786 -0.04220549389719963 0.0820571780204773 7.744522571563721 5.448395729064941 0.4403008818626404 0.07946793735027313 -0.017259247601032257 -0.008883788250386715 3.0280063152313232 0.9741467237472534 0.09788060188293457 0.072247214615345 -0.03516373038291931 -0.05428263172507286 10.345793724060059 0.6998933553695679 -0.022672466933727264 -0.0118567431345582 0.1481236219406128 0.002792245941236615 2.2429897785186768 -0.752322256565094 -0.2036287486553192 0.029613466933369637 -0.032063376158475876 0.041190337389707565 -57.923561096191406 37.11082077026367 -22.513927459716797 28.32398796081543 -33.76723098754883 -73.13756561279297 0.40103673934936523 -16.549467086791992 2.5537521839141846 -0.03398395702242851 -0.10973238199949265 0.02506532147526741 -0.04977181926369667 0.11709898710250854 0.0032516217324882746 0.023720700293779373 -0.027019133791327477 -0.03953899070620537 -7.648594856262207 5.505482196807861 -0.43102094531059265 -0.12008316814899445 -0.004375432152301073 0.005961424671113491 -2.9377317428588867 1.0230495929718018 0.0106895100325346 0.017850900068879128 0.04627503454685211 -0.04036257416009903 -10.348651885986328 0.922675609588623 -0.037589047104120255 0.10567674785852432 -0.09741386026144028 -0.07435468584299088 -2.188230276107788 -0.7241936326026917 0.2240608185529709 -0.04695390164852142 0.0646737664937973 0.0477743074297905 -27.87868309020996 -44.000823974609375 -23.71332359313965 -1.7901338338851929 67.02408599853516 2.5025594234466553 -4.85439395904541 -12.140044212341309 -12.787919044494629 -0.09615808725357056 -0.15399916470050812 -0.024045340716838837 36.90229034423828 -46.18422317504883 29.236555099487305 1.4719250202178955 70.39625549316406 -2.319751739501953 4.225386142730713 -11.362506866455078 13.84759521484375
0.09191147983074188 62.6204788684845 0.2273877151310444 -3.223388671875 1.22256600856781 6.577582359313965 -2.1976470947265625 14.131209373474121 4.182453632354736 2.5819928646087646 -9.422635078430176 1.4039303064346313 -5.407112121582031 14.247743606567383 -3.6061391830444336 7.737641334533691 -24.12986183166504 -5.017502307891846 0.05042500048875809 -0.006836931221187115 0.07006282359361649 0.011693811975419521 -0.07902776449918747 -0.028502898290753365 -0.04996752366423607 0.055461812764406204 -0.010414853692054749 53.538883209228516 39.67131805419922 8.998403549194336 -28.4433650970459 -32.463951110839844 70.63246154785156 -0.06815413385629654 2.6555631160736084 0.26809021830558777 -0.06959102302789688 0.053889185190200806 -0.0004333532997407019 8.069333853200078e-05 -0.021899573504924774 0.03191637992858887 -0.047051332890987396 -0.04173561930656433 0.054038576781749725 7.7304534912109375 5.411026477813721 0.42520058155059814 0.029636302962899208 -0.07166756689548492 0.013534332625567913 2.9554107189178467 0.9695563912391663 0.09473145753145218 0.06837420910596848 -0.0023039882071316242 0.015616004355251789 10.289726257324219 0.7416749596595764 0.05047111585736275 -0.06493748724460602 0.04783056676387787 -0.032400645315647125 2.2486186027526855 -0.7038671970367432 -0.20802010595798492 0.05799984559416771 0.011676030233502388 -0.0002963764127343893 -59.35216522216797 37.316646575927734 -20.984691619873047 28.094820022583008 -33.35399627685547 -72.39945220947266 0.25705602765083313 -15.309922218322754 2.335463523864746 -0.07472675293684006 -0.052053969353437424 0.08139916509389877 -0.037192195653915405 0.05126780644059181 -0.030023345723748207 0.10187646001577377 0.03658998757600784 0.02056490257382393 -7.667194366455078 5.534346580505371 -0.36738353967666626 -0.01782524585723877 -0.027746770530939102 -0.0121408486738801 -2.8970019817352295 1.0488098859786987 -0.017037929967045784 -0.0039832694455981255 -0.015791630372405052 0.009037590585649014 -10.343901634216309 0.8148247003555298 -0.03147583827376366 0.028820261359214783 -0.07336540520191193 -0.02023143507540226 -2.2062902450561523 -0.7782595157623291 0.21225161850452423 -0.07318099588155746 0.054616715759038925 -0.0036797174252569675 -26.994369506835938 -43.05400848388672 -23.343740463256836 -1.583430528640747 67.05016326904297 2.326763391494751 -5.094291687011719 -11.514941215515137 -13.696839332580566 -0.03179435804486275 -0.08184897899627686 -0.053334303200244904 37.38863754272461 -46.99882125854492 29.833492279052734 0.8885749578475952 70.4870376586914 -1.6963350772857666 3.863626718521118 -11.079126358032227 13.164499282836914
0.2137863077223301 64.62857127189636 0.29329247772693634 6.449183464050293 18.905073165893555 -9.868760108947754 -11.894515037536621 17.409284591674805 -6.033556938171387 8.255602836608887 -7.536930084228516 -1.2393633127212524 -6.5993242263793945 15.145947456359863 -7.295465469360352 8.282638549804688 -20.179887771606445 -12.329633712768555 0.0035333544947206974 -0.11038927733898163 -0.04374639689922333 0.009656209498643875 -0.05017628148198128 -0.02717680111527443 0.027042141184210777 -0.005019768141210079 -0.01986493170261383 71.83649444580078 27.863637924194336 -14.409354209899902 -22.057676315307617 -15.872807502746582 43.35704040527344 -0.2640324831008911 9.88908576965332 1.3892196416854858 -0.006266328506171703 0.004305389244109392 0.03523016721010208 -0.026085074990987778 -0.00967333558946848 0.07603904604911804 0.09553366154432297 -0.0648493617773056 -0.005307617597281933 7.793606758117676 5.451664924621582 0.4150215685367584 0.12294541299343109 -0.006849158555269241 0.015444985590875149 2.9752283096313477 0.9448009133338928 0.08751551806926727 0.04249909892678261 0.02576650306582451 -0.022040948271751404 10.27925968170166 0.6881273984909058 0.046215903013944626 -0.0030716245528310537 0.06833653897047043 0.019999569281935692 2.2010340690612793 -0.7839400172233582 -0.27372002601623535 -0.012629743665456772 -0.04416593536734581 -0.03465944901108742 -53.541751861572266 41.15378189086914 -31.064645767211914 13.637807846069336 -6.742809295654297 -24.63783073425293 0.7497304677963257 23.685205459594727 -3.5568697452545166 -0.018666937947273254 -0.06036706641316414 -0.1219124123454094 0.0001310852385358885 0.12854574620723724 -0.022222621366381645 0.021659385412931442 -0.07729756832122803 0.04882792383432388 -7.690404415130615 5.41448450088501 -0.2860892713069916 -0.014411448501050472 -0.02861042320728302 0.07076295465230942 -2.8223867416381836 1.0782077312469482 0.0031695824582129717 -0.01366929616779089 0.08959359675645828 0.042673494666814804 -10.260342597961426 0.7874168157577515 -0.005516815930604935 0.052833184599876404 -0.06456763297319412 0.04073435440659523 -2.190876007080078 -0.772789716720581 0.17815189063549042 -0.052900537848472595 -0.004567315336316824 0.027141019701957703 -33.35218811035156 -47.49812698364258 -13.225724220275879 -0.6794025897979736 40.99565505981445 0.8573141694068909 0.8451619744300842 24.741952896118164 11.796494483947754 -0.10714608430862427 -0.08566723018884659 -0.0071107810363173485 5.7744598388671875 -1.4600954055786133 2.3027079105377197 -0.36455366015434265 52.86553192138672 -2.290799617767334 14.80189037322998 -24.0291690826416 31.429428100585938
0.33443840220570564 65.36501049995422 0.4195100627839565 5.8009796142578125 20.177946090698242 -10.048295021057129 -12.60737133026123 17.813255310058594 -5.862061023712158 8.93388557434082 -7.5278754234313965 -1.5376863479614258 -6.578248977661133 15.67588996887207 -7.2731828689575195 8.962924003601074 -20.162151336669922 -12.328039169311523 0.03715353459119797 -0.11517590284347534 -0.045887257903814316 0.04743100330233574 -0.032569415867328644 -0.017951378598809242 0.001202434883452952 -0.007137771230190992 2.9737620934611186e-06 71.15807342529297 25.42156982421875 -14.145371437072754 -21.568763732910156 -15.216421127319336 42.20137405395508 -0.40571480989456177 10.81178092956543 1.5331071615219116 0.013971504755318165 -0.06468244642019272 0.06060351803898811 0.007883623242378235 -0.009647605940699577 0.028169414028525352 0.10619165748357773 -0.09706789255142212 0.02034139446914196 7.785851955413818 5.509546279907227 0.4075278639793396 0.14861677587032318 0.06297382712364197 -0.012697886675596237 3.026898145675659 0.9456640481948853 0.057954806834459305 0.024409973993897438 -0.018233560025691986 -0.016373157501220703 10.302653312683105 0.7448097467422485 0.09871028363704681 0.07020605355501175 -0.0072685731574893 0.007638176437467337 2.216437339782715 -0.7630026936531067 -0.3277873992919922 0.013527566567063332 -0.0551590658724308 0.0032492217142134905 -53.93611526489258 42.399314880371094 -30.22397804260254 14.944915771484375 -7.665077209472656 -27.052074432373047 0.49651795625686646 22.004661560058594 -3.151834011077881 -0.03293304517865181 -0.09352394938468933 -0.11379944533109665 -0.040002040565013885 0.11489618569612503 0.06872216612100601 0.02397846058011055 -0.09591236710548401 0.015840820968151093 -7.691091537475586 5.448675632476807 -0.33332154154777527 -0.032463837414979935 -0.0014269223902374506 0.08596649765968323 -2.865064859390259 1.0331543684005737 -0.03419341892004013 -0.02723623439669609 0.10061469674110413 0.06488808244466782 -10.222270011901855 0.838944137096405 -0.09676219522953033 -0.029020018875598907 -0.08933303505182266 0.036628976464271545 -2.1096432209014893 -0.8143514394760132 0.22117924690246582 -0.02078242041170597 -0.04202916845679283 0.03182069957256317 -37.00935363769531 -47.606693267822266 -17.7449951171875 -0.46424639225006104 41.2526741027832 0.6237125396728516 -0.6654483079910278 23.949140548706055 12.587212562561035 -0.124607615172863 -0.15257208049297333 -0.11739570647478104 6.907595157623291 -0.26525798439979553 1.5090140104293823 -0.1596442610025406 54.375099182128906 -2.567094564437866 15.157861709594727 -24.748714447021484 31.526653289794922
